<svg width="45" height="59" viewBox="0 0 45 59" fill="none" xmlns="http://www.w3.org/2000/svg">
<g clip-path="url(#clip0_25_18)">
<mask id="mask0_25_18" style="mask-type:alpha" maskUnits="userSpaceOnUse" x="0" y="0" width="45" height="59">
<path fill-rule="evenodd" clip-rule="evenodd" d="M21.5 25C28.4036 25 34 19.4036 34 12.5C34 5.59644 28.4036 0 21.5 0C14.5964 0 9 5.59644 9 12.5C9 19.4036 14.5964 25 21.5 25ZM38 27C40.7614 27 43 24.7614 43 22C43 19.2386 40.7614 17 38 17C35.2386 17 33 19.2386 33 22C33 24.7614 35.2386 27 38 27ZM3.15688 59H41.8431C43.8482 55.6347 45 51.7019 45 47.5C45 35.0736 34.9264 25 22.5 25C10.0736 25 0 35.0736 0 47.5C0 51.7019 1.15179 55.6347 3.15688 59Z" fill="white"/>
</mask>
<g mask="url(#mask0_25_18)">
<path fill-rule="evenodd" clip-rule="evenodd" d="M21.5 25C28.4036 25 34 19.4036 34 12.5C34 5.59644 28.4036 0 21.5 0C14.5964 0 9 5.59644 9 12.5C9 19.4036 14.5964 25 21.5 25ZM38 27C40.7614 27 43 24.7614 43 22C43 19.2386 40.7614 17 38 17C35.2386 17 33 19.2386 33 22C33 24.7614 35.2386 27 38 27ZM3.15688 59H41.8431C43.8482 55.6347 45 51.7019 45 47.5C45 35.0736 34.9264 25 22.5 25C10.0736 25 0 35.0736 0 47.5C0 51.7019 1.15179 55.6347 3.15688 59Z" fill="white"/>
<path d="M3.15688 59L-0.279434 61.0474L0.883952 63H3.15688V59ZM41.8431 59V63H44.116L45.2794 61.0474L41.8431 59ZM30 12.5C30 17.1944 26.1944 21 21.5 21V29C30.6127 29 38 21.6127 38 12.5H30ZM21.5 4C26.1944 4 30 7.80558 30 12.5H38C38 3.3873 30.6127 -4 21.5 -4V4ZM13 12.5C13 7.80558 16.8056 4 21.5 4V-4C12.3873 -4 5 3.3873 5 12.5H13ZM21.5 21C16.8056 21 13 17.1944 13 12.5H5C5 21.6127 12.3873 29 21.5 29V21ZM39 22C39 22.5523 38.5523 23 38 23V31C42.9706 31 47 26.9706 47 22H39ZM38 21C38.5523 21 39 21.4477 39 22H47C47 17.0294 42.9706 13 38 13V21ZM37 22C37 21.4477 37.4477 21 38 21V13C33.0294 13 29 17.0294 29 22H37ZM38 23C37.4477 23 37 22.5523 37 22H29C29 26.9706 33.0294 31 38 31V23ZM3.15688 63H41.8431V55H3.15688V63ZM45.2794 61.0474C47.6432 57.08 49 52.4424 49 47.5H41C41 50.9613 40.0532 54.1893 38.4068 56.9526L45.2794 61.0474ZM49 47.5C49 32.8645 37.1355 21 22.5 21V29C32.7173 29 41 37.2827 41 47.5H49ZM22.5 21C7.86445 21 -4 32.8645 -4 47.5H4C4 37.2827 12.2827 29 22.5 29V21ZM-4 47.5C-4 52.4424 -2.64322 57.08 -0.279434 61.0474L6.59319 56.9526C4.9468 54.1893 4 50.9613 4 47.5H-4Z" fill="black"/>
</g>
</g>
<defs>
<clipPath id="clip0_25_18">
<rect width="45" height="59" fill="white"/>
</clipPath>
</defs>
</svg>
