<svg width="117" height="26" viewBox="0 0 117 26" fill="none" xmlns="http://www.w3.org/2000/svg">
<g clip-path="url(#clip0_25_35)">
<path d="M13 26C20.1797 26 26 20.1797 26 13C26 5.8203 20.1797 0 13 0C5.8203 0 0 5.8203 0 13C0 20.1797 5.8203 26 13 26Z" fill="#050505"/>
<path d="M59 26C66.1797 26 72 20.1797 72 13C72 5.8203 66.1797 0 59 0C51.8203 0 46 5.8203 46 13C46 20.1797 51.8203 26 59 26Z" fill="#050505"/>
<path d="M104 26C111.18 26 117 20.1797 117 13C117 5.8203 111.18 0 104 0C96.8203 0 91 5.8203 91 13C91 20.1797 96.8203 26 104 26Z" fill="#050505"/>
</g>
<defs>
<clipPath id="clip0_25_35">
<rect width="117" height="26" fill="white"/>
</clipPath>
</defs>
</svg>
